<svg width="194" height="194" viewBox="0 0 194 194" fill="none" xmlns="http://www.w3.org/2000/svg">
<path d="M72.75 153.583C32.3334 165.708 32.3334 133.375 16.1667 129.333M129.333 177.833V146.551C129.637 142.696 129.116 138.822 127.806 135.184C126.496 131.546 124.426 128.229 121.735 125.453C147.117 122.624 173.792 113.005 173.792 68.87C173.79 57.5843 169.448 46.7314 161.667 38.5575C165.352 28.6838 165.091 17.77 160.939 8.08334C160.939 8.08334 151.401 5.25417 129.333 20.0467C110.806 15.0255 91.2769 15.0255 72.75 20.0467C50.6825 5.25417 41.1442 8.08334 41.1442 8.08334C36.9924 17.77 36.7319 28.6838 40.4167 38.5575C32.5769 46.792 28.2312 57.743 28.2917 69.1125C28.2917 112.924 54.9667 122.543 80.3483 125.696C77.6889 128.444 75.6379 131.721 74.3288 135.314C73.0196 138.908 72.4817 142.736 72.75 146.551V177.833" stroke="black" stroke-width="4" stroke-linecap="round" stroke-linejoin="round"/>
</svg>
