<svg width="194" height="194" viewBox="0 0 194 194" fill="none" xmlns="http://www.w3.org/2000/svg">
<path d="M129.333 64.6667C142.196 64.6667 154.532 69.7765 163.628 78.872C172.724 87.9675 177.833 100.304 177.833 113.167V169.75H145.5V113.167C145.5 108.879 143.797 104.767 140.765 101.735C137.733 98.7033 133.621 97 129.333 97C125.046 97 120.934 98.7033 117.902 101.735C114.87 104.767 113.167 108.879 113.167 113.167V169.75H80.8333V113.167C80.8333 100.304 85.9431 87.9675 95.0386 78.872C104.134 69.7765 116.47 64.6667 129.333 64.6667Z" stroke="black" stroke-width="4" stroke-linecap="round" stroke-linejoin="round"/>
<path d="M48.5 72.75H16.1667V169.75H48.5V72.75Z" stroke="black" stroke-width="4" stroke-linecap="round" stroke-linejoin="round"/>
<path d="M32.3333 48.5C41.2619 48.5 48.5 41.2619 48.5 32.3333C48.5 23.4047 41.2619 16.1667 32.3333 16.1667C23.4047 16.1667 16.1667 23.4047 16.1667 32.3333C16.1667 41.2619 23.4047 48.5 32.3333 48.5Z" stroke="black" stroke-width="4" stroke-linecap="round" stroke-linejoin="round"/>
</svg>
